<svg width="680" height="587" viewBox="0 0 680 587" fill="none" xmlns="http://www.w3.org/2000/svg">
<g filter="url(#filter0_d_47_1781)">
<path fill-rule="evenodd" clip-rule="evenodd" d="M221.143 360.464C237.272 328.889 257.702 293.423 286.212 262.634C326.542 219.078 381.543 186.69 463.339 194.426L470.872 114.782C359.193 104.22 280.986 150.53 227.512 208.28C186.599 252.465 159.326 304.419 141.38 340.971C127.728 338.582 109.851 338.473 92.64 344.799C70.4004 352.973 50.8499 371.42 43.6381 404.391C41.5119 414.112 47.6494 423.73 57.3468 425.873C67.0441 428.016 76.629 421.873 78.7553 412.152C83.2875 391.431 94.1016 382.67 105.047 378.647C106.33 378.175 107.634 377.764 108.949 377.408C90.6762 391.736 76.8658 414.508 77.721 446.881C77.9835 456.818 86.2524 464.662 96.1901 464.399C106.128 464.137 113.971 455.868 113.708 445.93C113.153 424.892 121.921 412.406 132.655 404.611C136.474 401.838 140.584 399.645 144.679 397.956C132.544 415.29 124.75 438.713 125.499 467.069C125.762 477.007 134.031 484.85 143.968 484.588C153.906 484.325 161.749 476.056 161.487 466.119C160.869 442.723 168.036 425.855 176.756 415.185C183.214 407.283 190.022 403.231 195.184 401.561L195.312 401.615L195.312 401.615C201.102 404.058 204.764 405.603 207.788 407.398C209.83 408.61 210.574 409.38 210.785 409.634C211.1 410.796 212.03 417.4 203.042 435.851C197.237 447.766 202.126 462.115 213.96 467.901C225.795 473.686 240.094 468.717 245.899 456.802C258.705 430.514 263.857 406.156 252.335 385.829C246.874 376.196 238.992 370.113 232.184 366.072C228.557 363.919 224.7 362.054 221.143 360.464ZM168.138 374.993C167.697 375.279 167.257 375.571 166.82 375.868C167.029 375.687 167.238 375.508 167.449 375.33L167.463 374.751L168.138 374.993ZM210.721 409.46C210.716 409.447 210.715 409.44 210.716 409.439C210.719 409.438 210.737 409.476 210.763 409.559C210.741 409.513 210.727 409.48 210.721 409.46ZM210.842 409.707C210.849 409.72 210.854 409.727 210.854 409.727C210.854 409.727 210.851 409.72 210.842 409.707Z" fill="#D7A973"/>
<rect x="224.466" y="430.286" width="22.3971" height="31" rx="8" transform="rotate(20.0378 224.466 430.286)" fill="#FFF7AD"/>
<rect x="133.546" y="450.992" width="16.4427" height="23.9289" rx="8" transform="rotate(11.8409 133.546 450.992)" fill="#FFF7AD"/>
<rect x="80.9825" y="426.232" width="12.0329" height="23.9289" rx="6.01644" transform="rotate(11.8409 80.9825 426.232)" fill="#FFF7AD"/>
<rect x="53.0621" y="383.847" width="12.0329" height="23.9289" rx="6.01644" transform="rotate(33.1972 53.0621 383.847)" fill="#FFF7AD"/>
<path d="M173.398 379.512L182.963 372.31C186.745 372.735 194.273 373.912 194.126 375.22C193.942 376.855 189.832 389.085 188.567 390.598C187.556 391.809 178.033 383.712 173.398 379.512Z" fill="#C7975E"/>
<path d="M128.906 376.166L135.401 371.93L139.54 374.05L146.024 374.779L145.35 380.773L133.992 384.463L128.906 376.166Z" fill="#C7975E"/>
<path d="M109.08 352.968L116.483 345.523L125.791 345.466L124.995 352.55L119.876 359.148L111.23 358.176L109.08 352.968Z" fill="#C7975E"/>
<path d="M146.98 311.223L163.76 296.367L149.245 291.072L173.369 278.088L159.029 271.244L182.804 261.36L168.232 256.582L185.988 255.439L169.52 222.719L193.401 234.298L190.907 225.123L204.801 222.499L201.196 214.245L220.502 212.753L204.463 203.102L231.372 196.709L226.067 185.649L239.994 187.214L242.549 164.481L249.237 185.637L248.932 170.43L250.035 160.613L269.407 167.5L263.54 148.005L289.436 155.101L277.666 143.314C288.343 142.422 309.422 140.396 308.321 139.435C307.221 138.474 307.018 131.615 307.054 128.305L338.04 134.928L324.887 113.044L365.645 122.335L371.748 108.371L376.116 118.803L378.265 99.6858L405.594 107.467L404.211 97.3705L419.521 109.032L433.4 88.6179L447.399 107.457L451.802 90.6866L459.833 108.855L470.935 90.7445L490.074 99.6977L486.262 88.805L513.476 97.6195L514.347 89.8693L517.164 100.65L531.78 87.1202L530.386 99.5205L539.39 91.1148L548.259 97.3439L552.895 78.5063L561.572 99.8869L564.109 90.7544L569.646 99.7481L572.938 83.8988L583.953 102.403L589.823 90.5058L591.065 106.342L609.595 84.8802L609.435 104.221L616.159 98.1751L620.758 106.54L622.675 89.4898L644.781 112.38L646.523 96.8796L651.744 113.163L656.943 102.76L657.978 115.956L667.413 99.2278L671.904 117.522L657.238 212.143L651.219 220.885L627.189 206.15L613.6 223.981L606.299 203.801L597.685 222.192L578.439 191.775L563.682 211.044L552.551 193.574L535.016 215.147L534.148 191.505L513.448 205.397L503.312 188.038L490.253 210.115L475.673 196.442L456.929 206.369L447.795 198.017L432.076 221.364L409.182 201.001L395.419 220.383L385.258 207.73L370.773 238.017L342.208 223.295L328.253 257.828L313.848 242.605L310.479 272.573L290.454 253.579L292.472 289.384L270.672 281.701L272.095 304.882L258.517 300.217L271.05 314.183L249.579 317.001L246.152 347.485L235.112 333.687L232.44 357.454L227.652 332.849L215.53 355.554L214.72 331.395L206.603 349.841L205.27 330.333L186.966 340.832L189.521 318.098L170.984 330.664L170.854 313.907L146.98 311.223Z" fill="#FF8A35"/>
<path d="M173.237 296.962L189.931 282.738L194.497 295.83L173.237 296.962Z" fill="#EA6C12"/>
<path d="M210.747 325.833L205.031 305.065L214.969 306.182L210.747 325.833Z" fill="#EA6C12"/>
<path d="M241.303 309.142L237.63 288.1L243.593 288.77L241.303 309.142Z" fill="#EA6C12"/>
<path d="M189.927 242.486L205.554 242.23L204.157 254.651L189.927 242.486Z" fill="#EA6C12"/>
<path d="M304.437 248.817L300.82 227.278L286.288 235.708L304.437 248.817Z" fill="#EA6C12"/>
<path d="M238.573 199.149L256.46 201.159L264.404 206.581L248.878 214.898L244.78 224.501L232.984 208.583L246.12 212.576L238.573 199.149Z" fill="#EA6C12"/>
<path d="M290.517 166.749L307.411 168.648L294.922 176.804L290.517 166.749Z" fill="#EA6C12"/>
<path d="M368.524 220.298L375.95 198.994L356.075 196.76L368.524 220.298Z" fill="#EA6C12"/>
<path d="M363.281 132.664L380.498 140.637L363.313 150.277L354.631 160.371L354.66 137.732L363.313 150.277L363.281 132.664Z" fill="#EA6C12"/>
<path d="M417.63 119.15L444.338 132.216L427.824 135.894L417.63 119.15Z" fill="#EA6C12"/>
<path d="M409.196 194.178L422.964 179.122L428.474 188.295L409.196 194.178Z" fill="#EA6C12"/>
<path d="M488.706 109.027L500.508 120.417L485.49 119.735L488.706 109.027Z" fill="#EA6C12"/>
<path d="M471.658 184.595L482.059 168.154L486.023 177.657L471.658 184.595Z" fill="#EA6C12"/>
<path d="M516.27 186.088L505.412 170.78L514.853 171.841L516.27 186.088Z" fill="#EA6C12"/>
<path d="M540.61 108.321L539.381 119.252L528.947 118.079L540.61 108.321Z" fill="#EA6C12"/>
<path d="M568.931 111.504L576.629 137.024L562.431 142.472L568.931 111.504Z" fill="#EA6C12"/>
<path d="M559.995 191.004L589.289 167.63L590.159 177.791L559.995 191.004Z" fill="#EA6C12"/>
<path d="M612.159 116.364L615.285 133.319L602.963 139.984L612.159 116.364Z" fill="#EA6C12"/>
<path d="M637.01 199.661L639.244 179.786L629.133 184.688L637.01 199.661Z" fill="#EA6C12"/>
<path d="M220.554 256.495L242.601 243.879L244.354 255.145L220.554 256.495Z" fill="#EA6C12"/>
<path d="M393.693 184.385L400.355 156.454L385.934 163.89L393.693 184.385Z" fill="#EA6C12"/>
<path d="M541.672 183.912L556.887 160.465L541.584 166.795L541.672 183.912Z" fill="#EA6C12"/>
</g>
<defs>
<filter id="filter0_d_47_1781" x="0.271973" y="76.5063" width="679.632" height="456.088" filterUnits="userSpaceOnUse" color-interpolation-filters="sRGB">
<feFlood flood-opacity="0" result="BackgroundImageFix"/>
<feColorMatrix in="SourceAlpha" type="matrix" values="0 0 0 0 0 0 0 0 0 0 0 0 0 0 0 0 0 0 127 0" result="hardAlpha"/>
<feOffset dx="-17" dy="23"/>
<feGaussianBlur stdDeviation="12.5"/>
<feComposite in2="hardAlpha" operator="out"/>
<feColorMatrix type="matrix" values="0 0 0 0 0 0 0 0 0 0 0 0 0 0 0 0 0 0 0.25 0"/>
<feBlend mode="normal" in2="BackgroundImageFix" result="effect1_dropShadow_47_1781"/>
<feBlend mode="normal" in="SourceGraphic" in2="effect1_dropShadow_47_1781" result="shape"/>
</filter>
</defs>
</svg>
